<?xml version="1.0" encoding="utf-8"?>
<!-- Generator: Adobe Illustrator 27.1.1, SVG Export Plug-In . SVG Version: 6.00 Build 0)  -->
<svg version="1.1" id="Layer_1" xmlns="http://www.w3.org/2000/svg" xmlns:xlink="http://www.w3.org/1999/xlink" x="0px" y="0px"
	 viewBox="0 0 200 200" style="enable-background:new 0 0 200 200;" xml:space="preserve">
<g fill="#f8f8f2">
	<path d="M10.3,76c1.2,0.2,1.9,0.3,2.6,0.5v-2.3c0.5,0.8,0.9,1.8,1.7,2.4c1,0.7,2.2,1.2,3.4,1.3c5.9,0.8,11.8,1.7,17.7,2.2
		c4.5,0.4,9.1,0.3,13.3-1.8c3.7-1.9,7-4.5,10.6-6.5c3.4-1.9,6.1-4.5,8.9-7.1c1.6-1.4,3.4-2.6,5.4-3.4c5.5-2.2,11.2-4.1,17.3-3.7
		c1.3,0.1,2.7,0.1,3.9,0.5c4.1,1.4,8,3,12.1,4.4c4.4,1.5,7.6,5,11.5,7.3c0.3,0.2,0.6,0.7,0.8,1c1.9,3.7,3.7,7.2,3.4,11.9
		c-0.3,4.8-0.5,9.5-2.6,13.9c-1.6,3.4-3.5,6.8-5.9,9.7c-2.5,3.1-5.4,5.9-8.6,8.2c-5.3,3.8-11.2,6.2-18,6.1c-2.9,0-7.4-3.7-7.2-7.5
		c0.2-5.7,2.1-10.9,3.9-16.2c1.2-3.5-0.4-6-2.7-8.3c-2.1-2.2-4.9-2.2-7.2-1.4c-6.1,2.2-12.2,4.6-18,7.5c-4,2-7.4,5-11.1,7.5
		c-8.4,5.7-13.7,5.1-21.3-0.9c-0.3-0.2-0.6-1-0.5-1.2c0.2-0.4,0.9-1,1.2-0.9c1.7,0.2,3.4,0.4,4.9,1.1c3.4,1.4,6.5,0.7,9.7-0.5
		c5-2,8.6-5.8,12.9-8.9c4.5-3.2,8.8-6.7,13.7-9c4.6-2.2,9.9-3.2,14.9-4.3c2.4-0.5,5.1,0,7.6,0.5c3,0.5,5,3.3,5.4,6.6
		c0.7,5.6,0.1,11-1.8,16.4c-0.8,2.1-0.6,4.5-0.6,6.8c0,0.9,1,1.7,1.6,2.6c0.9,1.3,1.7,0.3,2.6,0c4.6-1.6,8-5,11.8-7.9
		c4.5-3.4,6.7-8.2,7-13.2c0.5-7.4-0.9-14.6-8-19.2c-4.8-3.1-9.7-5.1-15.5-5.4c-4.7-0.2-8.5,1.3-12.2,3.9c-4.9,3.4-9.5,7-14.6,9.9
		c-4.2,2.4-9,3.8-13.5,5.7c-2.9,1.3-6,2-9.2,1.9c-2.7-0.1-5.4-0.2-8-0.6c-3.3-0.5-6.6-1-9.9-1.9c-4.5-1.2-9.1-2.2-12.8-5.4
		C10.6,78,10.6,77.1,10.3,76L10.3,76z"/>
	<path d="M21.6,122.1c1.1-1.5,2.2-3,3.4-4.4c1.2-1.4,2.5-2.8,4-4c1-0.8,2.4-1,3.4-1.8c6.7-4.7,14.4-6.2,22.2-6
		c8.5,0.2,14.6,5,18.9,12.3c1.2,2,2.8,4.1,4.7,5.4c3.9,2.6,8,5,12.2,6.8c6.4,2.7,15.1,1.6,20-3.9c2.5-2.7,4.7-5.7,6.5-8.9
		c2.6-4.5,4.5-9.4,7.1-13.9c3.6-6.2,7.3-12.4,11.5-18.3c4.2-5.8,10.5-8.8,17.1-10.9c5-1.6,9.9-0.4,14.3,2.5c1.3,0.9,2.4,2.1,3.8,3.4
		c-0.7,0.7-1.1,1.1-1.8,1.7c-3.4-3.9-7.7-4.1-12.1-2.9c-3.6,0.9-6.3,3.4-8,6.8c-2.9,5.7-5.7,11.5-8.6,17.2c-1.1,2.1-2,4.4-3.3,6.4
		c-3,4.3-6.4,8.3-9.3,12.6c-5.1,7.6-12.6,11.5-20.9,14.2c-5.9,2-12,1.7-17.9,0.1c-2.8-0.7-5.7-1.7-8.1-3.2c-2.5-1.7-4.6-4.1-6.5-6.4
		c-2.3-2.8-3.9-6.1-6.3-8.8c-3.5-3.9-8.3-5.6-13.4-6.5c-8.9-1.6-16.7,0.8-23.7,6.4c-2.6,2.1-5.5,3.7-8.8,4.5
		C21.9,122.4,21.8,122.3,21.6,122.1L21.6,122.1z"/>
	<path d="M189.5,124c0.6,1.7,1.2,3,1.5,4.4c0.1,0.6-0.4,1.4-0.8,2c-2,3-4.7,5.2-8.1,6.2c-5.4,1.7-10.9,2.4-16-1.1
		c-2.9-2-4.8-9.2-3.3-12.4c0.4-0.9,0.7-1.8,0.9-2.7c1.5-5.6,4.7-10.1,9.4-13.5c1.8-1.3,2.2-3,1.7-4.9c-0.5-2-2.1-3.5-3.9-3.2
		c-2.2,0.3-4.4,1.4-6.5,2.5c-6.3,3.4-10.7,8.8-14.8,14.6c-2.7,3.8-5.7,7.6-9.1,10.9c-3.5,3.4-7.6,6.4-11.5,9.3c-1,0.7-2.6,0.5-4,0.6
		c-0.3,0-1-0.9-0.9-1.2c0.2-0.8,0.5-1.8,1.1-2.1c5.5-3,10.6-6.1,13-12.5c2.9-7.5,7.1-14.3,12.3-20.5c2.5-3,5.1-6.2,8.2-8.5
		c2.5-1.8,5.8-2.6,8.9-3.5c2-0.6,4.3-0.4,6.4-0.7c3.6-0.5,7.4,2.1,8.7,5.5c0.9,2.3,2,4.4,1.8,7c-0.3,3.7-1.5,7-4,9.6
		c-2.6,2.8-5.5,5.3-8.6,7.6c-2.9,2.2-4.2,6.3-4,9.8c0.2,3.6,2.2,5.3,5.2,5.7c1.6,0.2,3.6-0.6,5-1.5c3.1-1.9,6-4.2,9.1-6.2
		C187.8,124.9,188.5,124.6,189.5,124L189.5,124z"/>
	<path d="M84.9,51.5c1-0.5,2-0.9,2.8-1.5c3.7-2.5,8.2-1.5,12.3-2.9c2-0.7,4.6-0.1,6.8,0.4c7.2,1.8,13.5,5.3,19.6,9.5
		c3,2.1,6.5,3.6,9.9,5.1c2.5,1.1,5.2,1.6,7.7,2.4c0.3,0.1,0.7,0.3,0.8,0.3c1.7-2.5,4.7-0.5,6.8-2.2c3.7-3,5.2-9.7,0.7-12.5
		c-2.8-1.8-8.6-1.5-9.7,3.5c-0.3,1.5-0.3,2.7,1.3,3.5c0.6,0.3,1,1.4,1.1,2.2c0.1,0.4-0.8,1.3-1.1,1.2c-0.9,0-2-0.2-2.5-0.8
		c-4.5-5.4-4.6-8.5-0.2-14.1c1.6-2.1,4.4-2.8,6.9-2c4.2,1.2,8.2,2.9,12.3,4.5c0.6,0.2,1,1,1.3,1.6c0.6,1.1,0.9,2.3,1.7,3.2
		c2.1,2.7,1.9,4.3,0.4,7.4c-1.9,4.3-5.2,6.8-9.5,8c-5.2,1.3-10.5,1.8-16,0.7c-5-1-9.4-2.9-13.4-5.7c-1.8-1.3-3.4-2.9-4.9-4.6
		c-2.8-3.2-6.3-5.4-10.5-5.5c-4.5-0.2-9,0.5-13.4,0.9c-1.5,0.1-3.1,0.5-4.6,0.7c-0.2,0-0.5,0-0.6-0.1C89.1,53.9,87.4,52.9,84.9,51.5
		L84.9,51.5z"/>
	<path d="M45.7,63.2c0.9-0.1,1.9-0.2,2.8-0.4c2.5-0.7,5-1.6,7.5-2.4c0.3-0.1,0.7,0,0.8-0.2c2.1-3,6.2-2.8,8.7-5.3
		c0.6-0.6,2.3-0.1,3.7-0.1c-0.2,0.8-0.4,1.2-0.5,1.8c0.5-0.2,0.8-0.4,1.1-0.5c0.1,0.1,0.2,0.2,0.3,0.2c-0.7,0.9-1.4,1.8-2.1,2.6
		c-5.1,5.9-11.9,8.7-19.2,10.4c-3.7,0.8-7.5,0.8-11.3,1c-3.7,0.1-7.5,0.1-11.3,0c-3.5-0.1-7.1-0.5-10.6-0.9c-0.6-0.1-1-0.9-1.5-1.4
		c0.7-0.5,1.4-1.5,2-1.5c1.9,0,3.7,0.4,5.6,0.6c7.5,1,14.7-0.6,21.8-2.6c0.8-0.2,1.4-1,2.1-1.5L45.7,63.2L45.7,63.2z"/>
</g>
</svg>
