<svg width="176" height="178" viewBox="0 0 176 178" fill="none" xmlns="http://www.w3.org/2000/svg">
<g clip-path="url(#clip0_1_2)">
<rect width="176" height="178" fill="white"/>
<path d="M88.5014 173C133.561 173 170 136.561 170 91.5014C170 46.4413 133.561 10 88.5014 10C43.4386 10 7.00003 46.4386 7.00002 91.5013C7.00002 136.319 42.9545 173 88.5014 173Z" fill="#9F3001"/>
<path d="M64.2072 152.96L88.3777 72.7953L88.5014 72.6743L88.7434 72.7953L112.914 152.96L144.13 50.3245L138.3 50.3245C138.3 50.3245 134.411 68.1807 127.973 78.8675C124.451 84.6977 119.107 89.4361 111.943 89.315C106.842 89.1913 102.469 86.4 97.0019 78.7465C95.7891 77.047 94.3316 74.2529 92.874 71.5798C90.564 67.0889 88.6224 62.4715 88.6224 62.4715C88.6224 62.4715 83.521 74.1319 80.2402 78.7465C74.7758 86.4 70.4031 89.1913 65.3017 89.315C58.135 89.4361 52.6706 84.6977 49.2688 78.8675C42.8308 68.1807 38.9423 50.3244 38.9423 50.3244L33.1148 50.3244L64.2072 152.96Z" fill="white"/>
</g>
<defs>
<clipPath id="clip0_1_2">
<rect width="176" height="178" fill="white"/>
</clipPath>
</defs>
</svg>
