<svg width="512" height="512" viewBox="0 0 512 512" fill="none" xmlns="http://www.w3.org/2000/svg">
<rect width="512" height="512" fill="white"/>
<path d="M255.504 495C387.92 495 495 387.92 495 255.504C495 123.088 387.92 16 255.504 16C123.08 16 16.0001 123.08 16 255.504C16 387.209 121.658 495 255.504 495Z" fill="#9F3001"/>
<path d="M168.112 437.11L239.141 201.534L239.504 201.178L240.215 201.534L311.244 437.11L402.977 135.499L385.844 135.499C385.844 135.499 374.417 187.973 355.499 219.378C345.146 236.51 329.444 250.435 308.391 250.079C293.4 249.716 280.55 241.513 264.484 219.022C260.92 214.028 256.637 205.817 252.354 197.962C245.566 184.764 239.86 171.195 239.86 171.195C239.86 171.195 224.869 205.461 215.227 219.022C199.169 241.513 186.32 249.716 171.329 250.079C150.268 250.435 134.21 236.51 124.213 219.378C105.294 187.973 93.8673 135.499 93.8673 135.499L76.7424 135.499L168.112 437.11Z" fill="white"/>
</svg>
